<svg width="204" height="123" viewBox="0 0 204 123" fill="none" xmlns="http://www.w3.org/2000/svg">
<path d="M33.1225 64.2104C31.9867 65.3456 31.4191 66.9246 31.5741 68.5178L31.5475 68.4913C31.7068 70.3661 31.026 72.2154 29.6869 73.5458C28.3477 74.8762 26.4862 75.5525 24.5991 75.3942L24.6257 75.4207C22.3408 75.2094 20.1678 76.4442 19.1927 78.5079C18.2176 80.5717 18.6497 83.0213 20.2731 84.6326C21.8965 86.2439 24.3626 86.671 26.4391 85.7004C28.5155 84.7298 29.7564 82.5699 29.5417 80.3001L29.5698 80.3266C29.4105 78.4518 30.0912 76.6025 31.4304 75.2721C32.7696 73.9417 34.631 73.2654 36.5182 73.4236L36.4901 73.3972C39.0013 73.6215 41.338 72.1004 42.1334 69.7234C42.9288 67.3464 41.974 64.7382 39.8274 63.4242C37.6807 62.1102 34.9063 62.4358 33.1269 64.2104H33.1225Z" fill="#5454D4"/>
<path d="M22.2025 71.953L22.1744 71.9265C23.779 72.0872 25.3715 71.5234 26.5124 70.3909C27.6532 69.2584 28.2219 67.6767 28.0614 66.0824L28.0895 66.1089C27.9302 64.2341 28.611 62.3848 29.9501 61.0544C31.2893 59.724 33.1508 59.0477 35.0379 59.206L35.0098 59.1795C37.2949 59.3927 39.4692 58.1593 40.4458 56.0958C41.4224 54.0324 40.9916 51.5821 39.3687 49.9697C37.7457 48.3574 35.2793 47.9294 33.2022 48.8996C31.1252 49.8698 29.8837 52.0299 30.0983 54.3001L30.0716 54.2721C30.2315 56.1471 29.5509 57.9967 28.2116 59.3272C26.8723 60.6578 25.0105 61.3339 23.1232 61.1751L23.1499 61.203C21.5452 61.0424 19.9527 61.6061 18.8118 62.7387C17.671 63.8712 17.1023 65.4528 17.2628 67.0471L17.2362 67.0207C17.395 68.8954 16.7141 70.7443 15.375 72.0746C14.0359 73.4049 12.1748 74.0813 10.2878 73.9236L10.3144 73.9501C8.02929 73.7369 5.855 74.9703 4.87839 77.0337C3.90178 79.0972 4.33263 81.5475 5.95557 83.1598C7.57852 84.7721 10.0449 85.2002 12.122 84.23C14.199 83.2597 15.4406 81.0997 15.226 78.8295L15.2541 78.856C15.0948 76.9811 15.7755 75.1319 17.1147 73.8014C18.4539 72.471 20.3153 71.7948 22.2025 71.953Z" fill="#FF7143"/>
<path d="M12.2817 69.0016C13.4177 67.8665 13.9848 66.2873 13.8286 64.6942L13.8567 64.7207C13.6973 62.8453 14.3784 60.9955 15.7183 59.665C17.0581 58.3344 18.9204 57.6586 20.8081 57.8178L20.78 57.7913C23.0643 58.0039 25.2375 56.7706 26.2135 54.7078C27.1896 52.645 26.7587 50.1957 25.1364 48.5839C23.514 46.9722 21.0486 46.5442 18.9722 47.5138C16.8958 48.4835 15.6544 50.6425 15.8684 52.9119L15.8418 52.8854C16.0011 54.7602 15.3203 56.6095 13.9812 57.9399C12.642 59.2703 10.7805 59.9466 8.89336 59.7883L8.92001 59.8148C6.40888 59.5911 4.07266 61.1127 3.27773 63.4896C2.4828 65.8666 3.43797 68.4746 5.58459 69.7882C7.73121 71.1019 10.5054 70.7762 12.2847 69.0016H12.2817Z" fill="#5454D4"/>
<path d="M58.1361 54.334H62.5325V75.5884H58.1361V54.334Z" fill="#19191B"/>
<path fill-rule="evenodd" clip-rule="evenodd" d="M69.7954 61.1596C66.8941 62.3636 65.0097 65.1867 65.0223 68.3104C65.0071 70.3586 65.8215 72.3269 67.2823 73.7724C68.7431 75.2178 70.7277 76.019 72.7893 75.9957C75.9336 75.9957 78.7677 74.1123 79.968 71.2252C81.1683 68.3381 80.4981 65.0168 78.2703 62.8124C76.0425 60.6081 72.6967 59.9555 69.7954 61.1596ZM72.7269 65.0536C74.5768 65.0196 76.1087 66.4729 76.1599 68.3103C76.2098 69.2212 75.874 70.1114 75.2338 70.7653C74.5935 71.4192 73.7072 71.7773 72.7893 71.753C70.9391 71.7531 69.4343 70.2721 69.4172 68.434C69.4001 66.596 70.8769 65.0875 72.7269 65.0536Z" fill="#19191B"/>
<path fill-rule="evenodd" clip-rule="evenodd" d="M98.0783 74.8545V61.031L93.7988 61.0281V62.5133C92.7549 61.2443 91.1672 60.5421 89.5194 60.6207C85.4997 60.7466 82.3069 64.0203 82.3069 68.0156C82.3069 72.0109 85.4997 75.2845 89.5194 75.4104C91.1672 75.489 92.7549 74.7868 93.7988 73.5178V74.8486C93.8724 75.7267 93.5403 76.5905 92.8963 77.1963C92.2522 77.8021 91.366 78.0843 90.4875 77.9633C89.0978 78.1043 87.7661 77.3733 87.1465 76.1295L83.3955 78.2839C84.863 80.6593 87.5432 82.0214 90.3409 81.8133C94.2385 81.8133 98.0783 79.7457 98.0783 74.8545ZM91.7112 64.6533C93.0338 65.2458 93.8608 66.5777 93.8003 68.0177C93.8277 68.9476 93.458 69.8456 92.7826 70.4899C92.1073 71.1342 91.1892 71.4649 90.2551 71.4001C88.8043 71.4018 87.4982 70.527 86.9557 69.1903C86.4133 67.8535 86.7436 66.3234 87.79 65.325C88.8364 64.3267 90.3887 64.0608 91.7112 64.6533Z" fill="#19191B"/>
<path fill-rule="evenodd" clip-rule="evenodd" d="M105.341 61.1596C102.44 62.3636 100.556 65.1867 100.568 68.3104C100.553 70.3586 101.367 72.3269 102.828 73.7724C104.289 75.2178 106.273 76.019 108.335 75.9957C111.479 75.9957 114.313 74.1123 115.514 71.2252C116.714 68.3381 116.044 65.0168 113.816 62.8124C111.588 60.6081 108.243 59.9555 105.341 61.1596ZM108.273 65.0536C110.123 65.0196 111.654 66.4729 111.706 68.3103C111.756 69.2212 111.42 70.1114 110.78 70.7653C110.139 71.4192 109.253 71.7773 108.335 71.753C106.485 71.7531 104.98 70.2721 104.963 68.434C104.946 66.596 106.423 65.0875 108.273 65.0536Z" fill="#19191B"/>
<path fill-rule="evenodd" clip-rule="evenodd" d="M119.781 54.7085C118.795 55.1141 118.152 56.0696 118.152 57.1296C118.167 58.5709 119.339 59.7358 120.79 59.7502C121.857 59.7502 122.819 59.1117 123.227 58.1324C123.635 57.1532 123.41 56.026 122.655 55.2765C121.901 54.5271 120.766 54.3029 119.781 54.7085ZM122.994 61.031H118.596L118.59 75.5898H122.994V61.031Z" fill="#19191B"/>
<path fill-rule="evenodd" clip-rule="evenodd" d="M140.084 73.6C141.398 72.1575 142.08 70.2537 141.977 68.3104C142.081 66.3667 141.399 64.4623 140.085 63.0193C138.77 61.5764 136.93 60.7141 134.973 60.6236C133.323 60.5342 131.72 61.1859 130.607 62.3986V61.031H126.211V81.4118H130.607V74.2192C131.72 75.4328 133.323 76.0851 134.973 75.9957C136.929 75.9048 138.769 75.0426 140.084 73.6ZM134.036 64.9329C135.951 64.901 137.533 66.4087 137.581 68.3103C137.647 69.2554 137.304 70.1836 136.639 70.8619C135.973 71.5401 135.047 71.9039 134.095 71.8618C132.18 71.862 130.623 70.3285 130.607 68.4263C130.591 66.5241 132.122 64.9647 134.036 64.9329Z" fill="#19191B"/>
<path d="M155.544 71.2207C155.544 74.5693 152.614 75.9957 149.45 75.9957C146.833 76.2312 144.337 74.8585 143.148 72.531L146.957 70.3766C147.274 71.4602 148.311 72.176 149.444 72.0943C150.498 72.0943 151.026 71.7737 151.026 71.1928C151.026 69.5899 143.816 70.4354 143.816 65.3987C143.816 62.2237 146.513 60.6237 149.561 60.6237C151.894 60.5503 154.083 61.7436 155.275 63.7384L151.523 65.7472C151.187 64.9676 150.414 64.4633 149.561 64.4663C148.798 64.4663 148.329 64.7604 148.329 65.281C148.335 66.9413 155.544 65.834 155.544 71.2207Z" fill="#19191B"/>
<path d="M171.603 61.031V75.5898H167.207V74.2207C166.178 75.4462 164.62 76.1069 163.018 75.9972C160.057 75.9972 157.541 73.9016 157.541 69.9678V61.031H161.937V69.3281C161.863 70.0299 162.103 70.7287 162.594 71.2386C163.085 71.7485 163.777 72.0179 164.486 71.9751C166.098 71.9751 167.211 71.0442 167.211 68.9766V61.0354L171.603 61.031Z" fill="#19191B"/>
<path d="M196.812 66.6501V75.5883H192.416V67.0281C192.416 65.5722 191.713 64.6413 190.307 64.6413C188.841 64.6413 188.02 65.6604 188.02 67.3781V75.5883H183.625V67.0281C183.625 65.5722 182.922 64.6413 181.514 64.6413C180.048 64.6413 179.228 65.6604 179.228 67.3781V75.5883H174.832V61.0295H179.228V62.3678C180.154 61.1614 181.633 60.5041 183.155 60.6222C184.686 60.5478 186.143 61.277 186.994 62.5428C187.984 61.2195 189.589 60.4942 191.244 60.6222C194.608 60.6236 196.812 63.0104 196.812 66.6501Z" fill="#19191B"/>
<path d="M200.531 60.9413C202.333 60.9413 203.793 59.4902 203.793 57.7002C203.793 55.9101 202.333 54.459 200.531 54.459C198.729 54.459 197.268 55.9101 197.268 57.7002C197.268 59.4902 198.729 60.9413 200.531 60.9413Z" fill="#19191B"/>
</svg>
